PathFileType	4	(X/Y/Z)	C:\Users\Basilio\Documents\Thesis Gigler\squatting_fais\c3dfiles\038\SJ_pre5\markers_experimental.trc
DataRate	CameraRate	NumFrames	NumMarkers	Units	OrigDataRate	OrigDataStartFrame	OrigNumFrames
200.000000	200.000000	4	61	mm	200.000000	1321	1510
Frame#	Time	FHD			LBHD			RBHD			C7			T10			CLAV			LSHO			LUUPA			LMUPA			LDUPA			LLEP			LMEP			LRAD			LUL			LRFIN			RSHO			RUPA1			RMUPA			RDUPA			RLEP			RMEP			RRAD			RUL			RUFIN			LASI			RASI			USACR			LSACR			RSACR			LTHI1			LTHI2			LTHI3			LTHI4			LLFC			LMFC			LTIB1			LTIB2			LTIB3			LTIB4			LLMAL			LMMAL			LHEE			LMT1			LMT2			LMT5			RTHI			RTHI2			RTHI3			RTHI4			RLFC			RMFC			RTIB1			RTIB2			RTIB3			RTIB4			RLMAL			RMMAL			RHEE			RMT1			RMT2			RMT5			
		X1	Y1	Z1	X2	Y2	Z2	X3	Y3	Z3	X4	Y4	Z4	X5	Y5	Z5	X6	Y6	Z6	X7	Y7	Z7	X8	Y8	Z8	X9	Y9	Z9	X10	Y10	Z10	X11	Y11	Z11	X12	Y12	Z12	X13	Y13	Z13	X14	Y14	Z14	X15	Y15	Z15	X16	Y16	Z16	X17	Y17	Z17	X18	Y18	Z18	X19	Y19	Z19	X20	Y20	Z20	X21	Y21	Z21	X22	Y22	Z22	X23	Y23	Z23	X24	Y24	Z24	X25	Y25	Z25	X26	Y26	Z26	X27	Y27	Z27	X28	Y28	Z28	X29	Y29	Z29	X30	Y30	Z30	X31	Y31	Z31	X32	Y32	Z32	X33	Y33	Z33	X34	Y34	Z34	X35	Y35	Z35	X36	Y36	Z36	X37	Y37	Z37	X38	Y38	Z38	X39	Y39	Z39	X40	Y40	Z40	X41	Y41	Z41	X42	Y42	Z42	X43	Y43	Z43	X44	Y44	Z44	X45	Y45	Z45	X46	Y46	Z46	X47	Y47	Z47	X48	Y48	Z48	X49	Y49	Z49	X50	Y50	Z50	X51	Y51	Z51	X52	Y52	Z52	X53	Y53	Z53	X54	Y54	Z54	X55	Y55	Z55	X56	Y56	Z56	X57	Y57	Z57	X58	Y58	Z58	X59	Y59	Z59	X60	Y60	Z60	X61	Y61	Z61	

1322	6.605	-93.20410156250001	1707.905883789063	-843.634460449219	-266.1169128417969	1699.386108398438	-868.811706542969	-230.0221252441407	1686.970947265625	-727.5957031250001	-339.2285156250001	1534.10498046875	-781.9155883789065	-383.4800415039063	1245.706909179688	-795.7944946289065	-205.7389678955079	1484.60791015625	-820.5686035156252	-277.0004577636719	1540.038940429688	-974.009216308594	-336.6796875000001	1369.988891601563	-1144.858154296875	-294.8837585449219	1341.769775390625	-1137.721313476563	-325.0979003906251	1310.458374023438	-1179.859130859375	-314.3412170410157	1248.919311523438	-1198.592407226563	-388.4793395996095	1224.562377929688	-1172.671264648438	-294.6701354980469	1006.586608886719	-1033.743896484375	-247.8782501220704	980.7857055664065	-1083.256103515625	-259.2738952636719	987.9777832031252	-975.927673339844	-197.3520660400391	1508.343139648438	-648.4879150390626	-159.2594299316407	1332.166381835938	-502.7106323242189	-145.7838439941407	1291.328125	-526.2105102539064	-151.2886810302735	1269.945556640625	-471.1072387695314	-142.0221405029297	1195.46533203125	-454.8926696777345	-221.9113311767579	1183.324951171875	-433.5093078613282	-217.8324127197266	974.7064208984377	-602.9621582031251	-155.6204528808594	944.7164306640627	-588.0421142578126	-189.6628570556641	979.0916137695315	-670.9556274414064	-260.2794799804688	1043.3828125	-951.211120605469	-207.7074737548829	1050.81591796875	-706.1245117187501	-397.8032226562501	1098.668823242188	-796.3064575195315	-417.071014404297	1068.931884765625	-819.1702270507815	-401.3655395507814	1069.359741210938	-764.7642822265626	-345.4744567871094	732.9262084960939	-1027.255737304688	-318.1694641113282	652.9406738281251	-1041.132934570313	-269.5311279296876	656.4117431640626	-1036.083251953125	-340.9689331054688	602.0419921875001	-1018.815002441406	-336.3319396972657	542.6796264648439	-1023.446228027344	-277.9178161621094	511.878387451172	-922.7772216796877	-281.0708618164063	347.4544372558594	-1014.227783203125	-348.8260498046876	317.2709350585938	-1064.370239257813	-305.9099121093751	309.7260437011719	-1052.852661132813	-305.6983032226563	225.1670532226563	-1040.81982421875	-390.0527343750001	88.3918914794922	-1056.429443359375	-326.7503967285157	93.93715667724611	-1005.300842285156	-411.7312927246095	43.90816116333009	-995.512634277344	-220.3016815185547	47.00390625000001	-1086.306762695313	-237.7085723876954	51.70401000976564	-1134.211669921875	-294.7437744140626	31.73541259765626	-1158.802734375	-278.6811218261719	783.8941040039065	-643.2756347656251	-248.3208923339844	724.4168701171876	-641.8824462890626	-215.7084960937501	722.7282714843751	-646.8604736328126	-285.3085937500001	649.2714843750001	-663.3461914062501	-286.5832214355469	510.3701782226564	-675.2689208984376	-287.0935668945313	513.6389770507814	-796.4844360351565	-249.5920562744141	333.5730590820313	-707.2434082031251	-328.1750793457032	254.453109741211	-674.9795532226564	-282.2420959472657	256.7319030761719	-684.4458007812501	-272.9637756347657	206.7950439453126	-715.9163818359376	-345.5780944824219	89.17469024658205	-695.8676757812501	-307.6684570312501	92.54199981689455	-771.0308227539065	-392.5894775390626	39.12126922607423	-769.2103271484377	-179.8354797363282	48.04475402832033	-714.7046508789064	-192.4159545898438	52.01034545898439	-670.0266723632814	-243.1066589355469	34.36090087890626	-632.9398803710939	
1323	6.61	-90.97608184814455	1705.910766601563	-843.510437011719	-263.9396362304688	1699.547973632813	-868.6314086914065	-228.0290527343751	1686.735961914063	-727.3422241210939	-338.6331176757813	1534.150024414063	-781.5715332031252	-383.4712829589844	1245.85791015625	-795.529968261719	-205.4061889648438	1484.356567382813	-820.2077636718752	-276.5899353027344	1540.067260742188	-973.6023559570315	-336.4983520507813	1370.18310546875	-1144.43798828125	-294.6159973144532	1341.951293945313	-1137.3505859375	-324.9018554687501	1310.683715820313	-1179.41552734375	-314.1366577148438	1249.1533203125	-1198.206909179688	-388.4434509277345	1224.8232421875	-1172.212280273438	-294.7805480957032	1006.685974121094	-1033.469848632813	-247.9808197021485	980.952331542969	-1082.913696289063	-259.4231872558594	987.9641113281252	-975.5988769531252	-196.9850463867188	1508.197143554688	-648.0543212890626	-159.0567779541016	1332.10009765625	-502.3599548339845	-145.52490234375	1291.065307617188	-525.7966918945314	-151.2188720703125	1269.94384765625	-470.6326599121095	-141.992660522461	1195.334350585938	-454.4437255859376	-221.9059143066407	1183.1875	-433.0920410156251	-217.9875946044922	974.7596435546877	-602.6500854492189	-155.8259887695313	944.6462402343752	-587.7396850585939	-189.6715087890625	979.0669555664065	-670.6574096679689	-260.3612670898438	1043.421264648438	-950.9511718750002	-207.8557281494141	1050.87158203125	-705.7575683593751	-397.8343200683595	1098.750122070313	-796.0411376953127	-417.1659545898439	1069.06396484375	-818.8682861328127	-401.452850341797	1069.388671875	-764.4978637695314	-345.7301025390626	732.9404296875001	-1026.990966796875	-318.4523010253907	653.0295410156251	-1040.820556640625	-269.7163391113282	656.4133911132814	-1035.88427734375	-341.1576538085938	602.0554809570314	-1018.567260742188	-336.6358642578126	542.7019042968751	-1023.170043945313	-278.2420349121094	511.8811950683595	-922.5148925781252	-281.2174377441407	347.6056518554688	-1014.126953125	-349.0902099609376	317.3226623535157	-1064.231201171875	-305.6352844238282	310.0512084960938	-1052.6171875	-305.7897949218751	225.2067260742188	-1040.7119140625	-390.106170654297	88.40927886962892	-1056.367797851563	-326.7396850585938	94.01033020019533	-1005.258239746094	-411.7525939941407	43.90177154541016	-995.471130371094	-220.1768646240235	47.03919219970704	-1086.258422851563	-237.7322235107422	51.67675781250001	-1134.136962890625	-294.8297119140626	31.76223945617676	-1158.80517578125	-278.8829650878907	783.9749145507815	-643.1281127929689	-248.5794677734376	724.4403076171876	-641.5819702148439	-215.9640655517579	722.6973876953126	-646.5337524414064	-285.5544433593751	649.3515625000001	-663.1888427734376	-286.9300231933594	510.3908996582032	-675.0150756835939	-287.2745056152344	513.6712036132814	-796.3240356445315	-249.8101654052735	333.5994873046876	-707.1011962890626	-328.3589172363282	254.4203186035157	-674.9265747070314	-282.3772277832032	256.7744750976563	-684.3002929687501	-273.0623168945313	206.8063964843751	-715.7512207031251	-345.5500183105469	89.18825531005861	-695.8215942382814	-307.6147155761719	92.60989379882814	-770.9783325195315	-392.5699462890626	39.09484481811524	-769.210632324219	-179.7922973632813	48.08694076538087	-714.6142578125001	-192.452377319336	52.00250625610353	-669.9797973632814	-243.1357727050782	34.33105468750001	-633.0021972656251	
1324	6.615	-88.96831512451173	1703.79443359375	-842.9774169921877	-262.0133056640626	1699.58349609375	-868.4353637695315	-226.0149688720704	1686.650024414063	-727.0853881835939	-338.0607604980469	1534.189086914063	-781.211853027344	-383.3883056640626	1245.984008789063	-795.2854003906252	-205.0418243408204	1484.1025390625	-819.7839965820315	-276.1584777832032	1540.164184570313	-973.2183227539065	-336.2350463867188	1370.305297851563	-1143.994140625	-294.4275817871094	1342.01904296875	-1136.94384765625	-324.8352355957032	1310.782836914063	-1178.946655273438	-314.1000366210938	1249.27587890625	-1197.806518554688	-388.3504638671876	1225.121459960938	-1171.897338867188	-294.8869018554688	1006.796691894531	-1033.245849609375	-248.4180603027344	980.881042480469	-1082.505493164063	-259.5416870117188	987.9392700195315	-975.2366333007815	-196.6757049560547	1508.058715820313	-647.5241699218751	-158.8382873535157	1331.971801757813	-501.9992675781251	-145.3940734863282	1291.06201171875	-525.3335571289064	-151.1711883544922	1269.63525390625	-470.2702636718751	-142.0513153076172	1195.2587890625	-454.0168762207032	-221.9860992431641	1183.162353515625	-432.7225036621095	-218.2456970214844	974.7339477539065	-602.2811889648439	-156.1197967529297	944.4090576171877	-587.2410278320314	-189.9093933105469	979.139099121094	-670.2684326171876	-260.4808654785157	1043.416015625	-950.6579589843752	-207.8730468750001	1050.787719726563	-705.4989624023439	-397.8851928710939	1098.788940429688	-795.7274169921877	-417.2798461914064	1069.156982421875	-818.5664062500002	-401.514617919922	1069.389892578125	-764.1568603515626	-346.0682678222657	733.0066528320314	-1026.677124023438	-318.7245178222657	653.0798339843751	-1040.639038085938	-269.5179138183594	656.2132568359376	-1035.572631835938	-341.3955078125001	602.1038208007814	-1018.260864257813	-336.9957580566407	542.7857055664064	-1022.881286621094	-279.1300964355469	511.392547607422	-921.4846801757815	-281.1943969726563	348.2627258300782	-1013.889953613281	-349.2371520996094	317.3992614746094	-1064.073364257813	-305.9214477539063	309.7559204101563	-1052.662353515625	-305.9367065429688	225.2602996826172	-1040.6083984375	-390.109588623047	88.43162536621095	-1056.434326171875	-326.7750244140626	93.95413970947267	-1005.287902832031	-411.7701416015626	43.89536285400391	-995.455505371094	-220.3171081542969	46.98957061767579	-1086.307006835938	-237.6926727294922	51.69909667968751	-1134.207641601563	-294.8847045898438	31.81179428100587	-1158.7861328125	-279.1109008789063	783.9586181640627	-642.8381347656251	-248.9217834472657	724.4252319335939	-641.3856201171876	-216.1739044189454	722.4726562500001	-646.4352416992189	-285.8318786621094	649.3640747070314	-663.0354003906251	-287.1325378417969	510.454315185547	-674.9152832031251	-287.5174255371094	513.7454223632814	-796.1173095703127	-250.0250549316407	333.6988830566407	-706.8981933593751	-328.4776306152344	254.4870147705079	-674.8456420898439	-282.5146789550782	256.7646789550782	-684.4374389648439	-273.1922302246094	206.8106231689454	-715.6262207031251	-345.5700988769532	89.16555023193361	-695.8369750976564	-307.6517028808594	92.63022613525392	-770.947692871094	-392.5455322265626	39.09807205200196	-769.244812011719	-179.947250366211	48.362606048584	-714.9871215820314	-192.4693145751954	52.05460739135744	-669.9393920898439	-243.1165313720704	34.34090805053712	-632.9338989257814	
1325	6.62	-86.90195465087892	1701.818481445313	-842.9003906250002	-259.9404602050782	1699.5927734375	-868.2498779296877	-224.4272460937501	1686.698852539063	-726.7222290039064	-337.3768005371094	1534.41845703125	-780.8118286132815	-383.3583984375001	1246.136840820313	-794.9880371093752	-204.5959930419922	1483.921264648438	-819.3730468750002	-275.5443420410157	1540.1689453125	-972.695739746094	-335.9893798828126	1370.451171875	-1143.563842773438	-294.2193908691407	1342.086547851563	-1136.5712890625	-324.6154785156251	1310.958374023438	-1178.666259765625	-313.9208679199219	1249.404663085938	-1197.480834960938	-388.2050781250001	1225.327270507813	-1171.490356445313	-295.1769409179688	1006.932189941406	-1032.945434570313	-248.6250457763672	980.9475708007815	-1082.14501953125	-259.7433776855469	987.9358520507815	-974.906921386719	-196.379623413086	1507.922485351563	-647.0838623046876	-158.7694396972657	1331.804443359375	-501.4892578125001	-145.2728118896485	1290.923217773438	-524.8599853515626	-151.1775970458985	1269.482421875	-469.9465332031251	-142.151840209961	1195.116577148438	-453.4649353027345	-222.0363006591797	1183.161987304688	-432.2915344238282	-218.476547241211	974.7546386718752	-601.9482421875001	-156.3108215332032	944.366638183594	-587.0046997070314	-190.0421447753907	979.0679931640627	-669.8690795898439	-260.4695129394532	1043.461303710938	-950.5054931640627	-208.0503234863282	1050.743774414063	-705.2347412109376	-397.9228515625001	1098.814208984375	-795.423522949219	-417.3711853027345	1069.2822265625	-818.3620605468752	-401.6253967285157	1069.454345703125	-763.8897705078126	-346.3709716796876	733.0249023437501	-1026.478393554688	-318.8941345214844	653.1019897460939	-1040.440063476563	-269.7359313964844	656.2760009765626	-1035.418701171875	-341.6459045410157	602.1738891601564	-1017.988464355469	-337.3621215820313	542.8183593750001	-1022.592834472656	-279.4274902343751	511.2755737304689	-921.150329589844	-281.2335205078126	348.3477478027344	-1013.79345703125	-349.4118041992188	317.4288940429688	-1063.962036132813	-305.6154785156251	309.9875183105469	-1052.386352539063	-306.0132751464844	225.0370330810547	-1040.197509765625	-390.113250732422	88.4768753051758	-1056.390258789063	-326.7602844238282	94.00954437255861	-1005.267272949219	-411.7728271484376	43.88806533813477	-995.452819824219	-219.7628936767579	47.79862213134766	-1086.064819335938	-237.7341461181641	51.69324874877931	-1134.168090820313	-294.8659973144532	31.7391529083252	-1158.788452148438	-279.5053405761719	784.0291748046877	-642.6185913085939	-249.2857208251954	724.5071411132814	-641.0486450195314	-216.3061676025391	722.4750976562501	-646.2755126953126	-286.0700683593751	649.3766479492189	-662.8637084960939	-287.3628234863282	510.5091247558595	-674.7977294921876	-287.7023925781251	513.7573242187501	-795.9246826171877	-250.2359161376954	333.7242431640626	-706.7893066406251	-328.6593933105469	254.4699401855469	-674.7696533203126	-282.6533203125001	256.7503662109376	-684.3244018554689	-273.3682861328126	206.902572631836	-715.4844970703126	-345.5529174804688	89.13992309570314	-695.8232421875001	-307.7001037597657	92.6457977294922	-770.9088134765627	-392.5515136718751	39.11254882812501	-769.2366333007815	-179.9645080566407	48.3371047973633	-714.9384765625001	-192.4735870361329	52.0499610900879	-669.9471435546876	-243.1473083496094	34.33449935913087	-632.9766845703126	
